<?xml version="1.0" standalone="no"?>
<!DOCTYPE svg PUBLIC "-//W3C//DTD SVG 20010904//EN"
 "http://www.w3.org/TR/2001/REC-SVG-20010904/DTD/svg10.dtd">
<svg version="1.0" xmlns="http://www.w3.org/2000/svg"
 width="250.000000pt" height="250.000000pt" viewBox="0 0 250.000000 250.000000"
 preserveAspectRatio="xMidYMid meet">
<metadata>
Created by potrace 1.11, written by Peter Selinger 2001-2013
</metadata>
<g transform="translate(0.000000,250.000000) scale(0.100000,-0.100000)"
fill="#000000" stroke="none">
<path d="M179 2491 c-70 -22 -121 -67 -154 -137 l-25 -53 0 -1044 c0 -1146 -3
-1093 60 -1169 17 -20 55 -48 85 -63 l55 -25 1062 2 1063 3 42 23 c50 28 89
71 114 127 18 38 18 93 16 1105 l-2 1065 -23 40 c-35 59 -60 82 -116 110 l-51
24 -1050 0 c-577 0 -1062 -4 -1076 -8z"/>
</g>
</svg>
